<?xml version="1.0" standalone="no"?>
<!DOCTYPE svg PUBLIC "-//W3C//DTD SVG 20010904//EN"
 "http://www.w3.org/TR/2001/REC-SVG-20010904/DTD/svg10.dtd">
<svg version="1.0" xmlns="http://www.w3.org/2000/svg"
 width="1080.000000pt" height="1069.000000pt" viewBox="0 0 1080.000000 1069.000000"
 preserveAspectRatio="xMidYMid meet">

<g transform="translate(0.000000,1069.000000) scale(0.100000,-0.100000)"
fill="#000000" stroke="none">
<path d="M5130 10649 c-52 -22 -158 -67 -235 -99 -841 -351 -1709 -835 -2450
-1364 -92 -65 -329 -239 -335 -246 -3 -3 -32 -25 -65 -50 -33 -25 -62 -47 -65
-50 -3 -3 -63 -52 -135 -110 -193 -155 -343 -284 -564 -485 -238 -217 -593
-576 -831 -841 -159 -177 -150 -167 -310 -359 -69 -82 -128 -151 -132 -153
-12 -5 -10 -947 2 -1011 6 -31 24 -162 41 -291 16 -129 36 -269 44 -310 7 -41
23 -131 35 -200 11 -69 27 -154 35 -190 8 -36 28 -132 45 -215 132 -646 365
-1406 637 -2075 41 -102 84 -204 94 -227 10 -23 19 -44 19 -47 0 -3 18 -44 41
-93 23 -48 72 -155 111 -238 110 -237 376 -749 429 -827 11 -15 19 -30 19 -33
0 -5 164 -281 205 -345 12 -19 60 -96 107 -170 47 -74 96 -152 109 -172 28
-44 35 -47 329 -119 415 -101 680 -155 1125 -229 66 -11 264 -38 440 -60 l320
-41 1250 3 1250 4 298 42 c164 23 335 49 380 57 45 8 161 28 257 45 96 17 202
37 235 45 33 8 114 26 180 40 66 14 136 30 155 35 19 5 116 30 215 55 279 70
299 76 316 93 28 29 300 469 409 662 20 36 67 119 105 185 189 335 403 775
585 1200 5 11 22 52 39 90 17 39 55 135 86 215 31 80 60 156 66 170 24 57 140
386 187 530 190 589 305 1049 422 1690 9 50 55 357 70 465 5 39 16 120 24 180
29 213 63 617 73 862 l6 133 -64 73 c-35 41 -93 110 -129 153 -57 70 -186 221
-200 234 -3 3 -43 48 -90 100 -286 324 -739 772 -1084 1075 -38 33 -83 73
-100 88 -17 16 -62 54 -101 85 -38 31 -77 63 -85 71 -65 63 -623 491 -639 491
-5 0 -11 4 -13 8 -10 26 -655 455 -853 567 -27 16 -68 41 -90 55 -22 15 -65
40 -95 57 -95 52 -154 85 -185 103 -173 102 -809 418 -965 480 -25 10 -74 31
-110 48 -36 16 -122 53 -192 81 -337 136 -283 121 -442 120 l-141 0 -95 -40z
m425 -64 c183 -71 307 -122 445 -183 25 -11 78 -34 117 -51 155 -68 488 -230
708 -346 178 -93 463 -255 655 -373 163 -99 584 -378 732 -485 47 -34 117 -84
155 -111 37 -27 93 -69 123 -92 30 -24 105 -82 165 -130 61 -47 119 -93 130
-102 11 -10 58 -48 105 -86 47 -38 103 -86 126 -105 22 -20 69 -61 104 -91
247 -214 382 -341 660 -619 223 -223 357 -367 664 -711 55 -61 261 -311 270
-328 12 -22 -37 -728 -64 -927 -6 -38 -14 -104 -20 -145 -30 -240 -98 -649
-140 -850 -191 -904 -431 -1663 -780 -2465 -144 -331 -368 -784 -524 -1059
-31 -54 -56 -101 -56 -103 0 -6 -11 -25 -199 -338 -165 -276 -228 -375 -249
-397 -9 -9 -89 -35 -177 -58 -88 -22 -182 -47 -210 -55 -46 -12 -280 -65 -515
-115 -52 -11 -149 -29 -215 -41 -66 -11 -145 -25 -175 -30 -317 -56 -822 -115
-1200 -138 -644 -41 -1250 -33 -1905 24 -251 22 -778 90 -930 120 -38 7 -90
17 -115 20 -200 29 -690 135 -1015 219 -158 41 -159 41 -190 83 -63 87 -395
623 -395 639 0 3 -8 18 -18 32 -11 15 -36 59 -57 97 -21 39 -63 115 -93 170
-30 55 -67 125 -82 155 -15 30 -55 111 -90 180 -251 500 -467 1024 -654 1584
-133 396 -266 882 -346 1261 -11 55 -25 118 -30 140 -21 95 -51 251 -75 395
-14 85 -30 180 -35 210 -6 30 -21 141 -35 245 -13 105 -29 224 -35 265 -19
135 -39 351 -56 617 l-17 263 84 102 c90 111 348 416 389 460 14 15 72 78 130
141 58 63 218 227 355 363 231 230 306 302 425 409 188 168 232 206 285 250
33 27 69 57 80 67 11 9 40 33 65 53 25 20 54 44 65 54 255 214 710 542 1105
796 142 92 212 135 216 135 4 0 27 14 51 31 46 30 394 231 528 304 351 191
902 451 1300 613 217 88 251 101 271 101 11 1 96 -28 189 -64z"/>
<path d="M5290 10555 c-30 -13 -122 -51 -205 -84 -537 -215 -1256 -570 -1680
-829 -49 -30 -103 -62 -120 -72 -164 -94 -563 -356 -749 -490 -87 -64 -281
-206 -301 -222 -143 -110 -475 -376 -495 -398 -3 -3 -34 -30 -70 -60 -36 -30
-70 -59 -76 -65 -6 -5 -53 -48 -105 -95 -189 -170 -437 -409 -583 -561 -269
-280 -308 -324 -637 -711 -22 -26 -69 -83 -104 -127 -65 -80 -65 -80 -65 -144
0 -60 17 -311 40 -587 10 -116 23 -231 40 -350 6 -36 24 -164 40 -285 17 -121
37 -254 45 -295 8 -41 24 -127 35 -190 66 -363 195 -888 315 -1285 76 -253
270 -811 319 -918 8 -18 39 -93 69 -167 47 -116 106 -249 214 -489 30 -67 218
-442 265 -531 78 -144 153 -280 203 -365 29 -49 62 -106 72 -125 40 -71 182
-299 264 -425 71 -108 91 -132 120 -142 31 -11 421 -108 529 -132 193 -43 406
-86 575 -115 179 -32 294 -50 655 -100 172 -25 487 -53 870 -78 238 -16 1022
-16 1255 0 545 37 658 48 1077 108 230 32 629 104 813 145 170 39 660 160 687
171 19 7 52 48 106 132 139 214 353 576 457 771 26 50 66 124 88 165 76 141
327 652 327 665 0 3 13 33 29 67 40 88 95 213 121 278 12 30 30 73 40 95 88
199 316 850 402 1145 88 304 198 753 249 1015 17 88 35 180 40 205 8 41 23
131 64 390 41 263 87 716 108 1070 l12 204 -34 46 c-154 203 -545 642 -835
938 -134 137 -520 503 -636 603 -194 167 -229 197 -272 232 -26 21 -53 43 -60
50 -7 7 -33 28 -58 47 -25 19 -47 37 -50 40 -27 28 -357 277 -550 416 -335
240 -772 516 -1115 704 -360 197 -622 327 -1020 505 -196 88 -627 255 -653
254 -9 0 -42 -11 -72 -24z m220 -110 c111 -42 280 -110 330 -132 19 -8 44 -19
55 -23 27 -11 193 -85 335 -150 1093 -498 2193 -1242 3120 -2108 354 -331 831
-835 1060 -1122 19 -24 61 -74 93 -112 52 -63 57 -73 57 -116 -1 -124 -37
-589 -65 -832 -17 -140 -19 -161 -61 -445 -22 -151 -89 -522 -114 -630 -5 -22
-21 -94 -36 -160 -14 -66 -51 -217 -81 -335 -49 -195 -69 -266 -135 -485 -41
-138 -189 -576 -243 -722 -232 -616 -544 -1273 -889 -1872 -128 -222 -315
-524 -348 -562 -20 -23 -55 -35 -268 -88 -311 -77 -519 -124 -690 -155 -74
-14 -171 -32 -215 -40 -144 -28 -451 -72 -700 -101 -123 -14 -364 -34 -675
-57 -230 -16 -1050 -16 -1280 0 -493 36 -560 42 -930 87 -370 45 -905 145
-1345 251 -104 25 -220 55 -257 65 -72 21 -71 20 -155 149 -139 215 -259 414
-416 695 -73 129 -199 372 -261 500 -109 224 -156 324 -156 329 0 4 -48 110
-86 191 -33 71 -169 405 -207 511 -8 21 -33 91 -56 154 -37 100 -133 391 -218
655 -46 144 -183 675 -218 845 -99 482 -154 798 -184 1055 -5 44 -18 152 -29
240 -11 88 -26 230 -32 315 -6 85 -15 202 -21 259 -5 58 -9 133 -9 169 0 57 3
69 33 106 39 50 236 287 280 337 18 19 61 69 97 109 247 281 649 690 890 905
251 225 411 360 600 511 234 186 640 482 808 589 9 6 54 35 101 66 152 99 338
214 451 279 41 24 95 56 120 70 183 111 684 371 965 502 139 64 443 198 485
213 19 7 46 18 60 24 14 6 86 35 160 64 150 60 130 60 280 2z"/>
<path d="M5617 10083 c-15 -38 -42 -108 -61 -158 -19 -49 -60 -156 -90 -236
-31 -80 -56 -150 -56 -156 0 -12 71 -43 98 -43 13 0 30 36 71 148 78 212 91
240 101 222 4 -8 20 -78 34 -155 15 -77 35 -180 44 -230 17 -89 17 -90 56
-108 50 -24 86 -26 97 -7 5 8 58 145 119 305 119 313 117 302 51 324 -52 17
-57 15 -76 -36 -61 -169 -121 -321 -131 -337 -12 -18 -13 -18 -19 5 -3 13 -19
101 -35 194 -16 94 -35 198 -42 232 l-12 62 -54 20 c-30 12 -57 21 -61 21 -4
0 -20 -30 -34 -67z"/>
<path d="M4750 10025 l-55 -23 3 -354 c2 -194 7 -356 10 -359 4 -4 33 5 65 18
l57 26 0 82 0 82 83 33 c45 17 102 40 126 49 l43 16 53 -58 54 -59 60 23 c35
12 61 28 61 36 0 7 -69 84 -153 171 -84 86 -192 199 -241 250 -49 50 -94 92
-100 91 -6 0 -36 -11 -66 -24z m160 -245 c72 -81 81 -104 43 -116 -10 -4 -42
-15 -70 -27 -29 -11 -55 -19 -57 -16 -2 2 -6 57 -8 122 -3 85 -1 117 7 117 7
0 45 -36 85 -80z"/>
<path d="M4305 9831 c-33 -15 -65 -34 -71 -42 -11 -13 -52 -146 -91 -289 -26
-98 -33 -95 -99 36 -32 64 -65 119 -72 121 -18 7 -102 -39 -102 -56 0 -7 46
-106 101 -220 56 -113 119 -243 141 -288 22 -46 44 -83 49 -83 11 0 81 39 97
54 10 10 5 28 -28 96 -40 79 -41 85 -30 129 15 62 31 101 41 101 5 0 74 -43
154 -96 l145 -96 65 27 c36 16 70 34 76 41 8 10 -18 29 -113 86 -68 40 -127
75 -133 77 -5 2 -28 16 -50 30 -22 15 -52 33 -67 40 -33 17 -40 34 -29 64 19
47 91 273 91 285 0 16 -5 15 -75 -17z"/>
<path d="M6536 9717 c-22 -47 -256 -528 -263 -539 -4 -8 86 -68 103 -68 9 0
304 578 304 596 0 6 -99 54 -112 54 -7 0 -22 -20 -32 -43z"/>
<path d="M6846 9565 c-58 -21 -103 -69 -115 -125 -18 -84 9 -141 115 -242 86
-82 107 -118 92 -158 -17 -50 -83 -64 -146 -30 -76 40 -92 65 -92 142 0 52 -1
54 -38 70 -61 26 -75 26 -83 -2 -14 -48 -9 -134 10 -176 52 -113 249 -203 364
-165 77 26 145 137 130 214 -10 56 -33 88 -129 186 -75 76 -94 101 -94 125 0
55 50 70 123 37 60 -27 79 -53 85 -111 4 -48 7 -52 48 -70 23 -11 47 -20 53
-20 29 0 40 82 21 152 -19 66 -141 156 -240 177 -61 13 -56 13 -104 -4z"/>
<path d="M3680 9510 c0 -5 -6 -10 -12 -10 -7 0 -26 -10 -42 -23 l-28 -23 22
-39 c12 -22 40 -70 61 -107 22 -36 39 -68 39 -71 0 -3 148 -271 187 -338 l15
-26 54 29 c30 16 54 34 54 40 0 6 -25 56 -56 112 -31 55 -70 126 -87 156 -16
30 -56 102 -88 159 -33 57 -59 107 -59 111 0 11 -35 40 -48 40 -7 0 -12 -4
-12 -10z"/>
<path d="M5220 9324 c-74 -29 -144 -58 -155 -63 -11 -6 -72 -32 -135 -59 -211
-90 -619 -287 -770 -373 -30 -17 -100 -56 -155 -87 -171 -95 -481 -286 -608
-374 -16 -11 -49 -34 -75 -51 -26 -17 -51 -35 -57 -39 -5 -4 -80 -58 -165
-120 -85 -61 -171 -124 -190 -139 -19 -16 -87 -70 -150 -120 -419 -335 -849
-751 -1200 -1159 -142 -165 -250 -300 -251 -313 -7 -118 51 -787 76 -877 2 -8
11 -69 20 -135 33 -262 147 -799 236 -1115 102 -364 267 -845 353 -1034 14
-31 26 -59 26 -62 0 -3 11 -30 25 -60 14 -30 25 -56 25 -59 0 -10 125 -275
207 -440 136 -273 319 -597 448 -795 23 -36 61 -95 85 -132 31 -49 52 -70 74
-78 69 -22 402 -100 551 -129 88 -18 176 -36 195 -41 39 -10 254 -46 357 -59
37 -5 131 -18 208 -30 570 -84 1384 -98 2090 -35 432 38 1146 170 1535 284
l65 19 64 103 c362 578 614 1070 848 1658 143 358 313 885 366 1130 3 14 13
52 22 85 14 52 45 197 101 470 8 39 28 160 44 270 17 110 32 207 35 215 14 47
65 664 65 786 0 70 0 71 -47 126 -27 30 -87 102 -135 159 -47 57 -95 113 -105
124 -682 756 -1348 1323 -2084 1776 -247 153 -247 153 -459 271 -137 76 -625
318 -643 318 -7 0 -17 4 -23 9 -18 19 -548 232 -570 230 -5 0 -70 -25 -144
-55z m248 -20 c53 -20 101 -40 107 -45 5 -5 15 -9 22 -9 47 0 700 -305 978
-458 110 -60 382 -220 486 -285 107 -68 294 -191 299 -197 3 -3 25 -19 50 -35
24 -17 76 -53 115 -80 114 -82 415 -311 425 -324 5 -6 205 -175 280 -236 20
-16 63 -55 95 -85 32 -30 95 -89 139 -130 277 -260 595 -596 826 -875 41 -49
83 -99 93 -110 16 -17 17 -32 12 -110 -17 -255 -31 -407 -71 -735 -20 -167
-38 -278 -105 -635 -18 -99 -81 -369 -109 -470 -11 -38 -34 -122 -51 -185 -72
-259 -183 -586 -304 -895 -127 -325 -317 -727 -505 -1070 -15 -27 -39 -70 -52
-95 -56 -102 -188 -321 -288 -477 -47 -75 -57 -84 -94 -93 -22 -6 -61 -16 -86
-24 -25 -7 -106 -28 -180 -45 -74 -18 -171 -41 -215 -51 -81 -20 -462 -90
-590 -109 -136 -20 -592 -71 -755 -83 -341 -26 -1110 -14 -1445 22 -90 10
-116 13 -430 51 -93 11 -199 26 -235 34 -36 7 -135 25 -220 40 -160 27 -217
39 -500 107 -279 67 -273 65 -295 92 -22 28 -226 353 -267 426 -14 25 -56 99
-93 165 -173 307 -422 831 -519 1092 -14 39 -61 162 -76 198 -65 163 -181 536
-262 835 -41 154 -130 544 -147 645 -93 552 -122 787 -151 1208 l-9 139 51 66
c29 37 57 72 62 78 6 7 40 47 76 90 210 252 492 546 787 821 552 512 1217 984
1908 1353 97 52 472 240 479 240 3 0 47 20 98 44 51 24 143 64 203 89 208 87
350 145 358 146 4 1 52 -15 105 -35z"/>
<path d="M5130 9131 c-752 -309 -1414 -682 -2025 -1141 -204 -154 -279 -214
-455 -363 -352 -299 -732 -686 -1071 -1092 -130 -157 -121 -130 -109 -302 11
-158 35 -427 50 -558 9 -85 85 -563 99 -630 5 -22 21 -98 35 -170 99 -486 287
-1091 486 -1565 48 -115 62 -146 108 -250 93 -210 280 -574 403 -782 16 -27
29 -50 29 -52 0 -6 184 -298 230 -365 22 -33 48 -65 58 -70 56 -30 599 -149
932 -205 364 -61 560 -83 979 -111 386 -26 1018 -14 1351 25 47 5 135 15 195
20 102 10 353 47 470 70 28 5 79 14 115 20 109 19 456 98 615 140 165 43 163
42 229 150 18 30 68 111 111 180 277 447 640 1197 776 1600 10 30 26 75 35
100 110 298 228 711 304 1065 17 77 33 149 35 160 9 33 75 425 85 495 19 143
56 518 70 728 l11 153 -87 107 c-261 324 -705 783 -1035 1072 -41 35 -76 67
-79 70 -12 13 -194 163 -295 243 -371 292 -799 577 -1190 792 -38 21 -86 47
-105 58 -68 38 -367 186 -490 242 -69 31 -148 68 -177 81 -28 13 -55 24 -58
24 -4 0 -21 7 -38 15 -87 39 -342 135 -361 135 -11 0 -118 -40 -236 -89z
m1649 -1681 c46 -89 64 -147 49 -156 -6 -4 -34 17 -63 47 -40 40 -69 86 -115
181 -36 72 -59 132 -55 138 13 20 140 -126 184 -210z m-2347 172 c73 -18 144
-72 134 -99 -4 -8 -9 -52 -12 -99 -5 -62 -12 -89 -26 -104 -22 -24 -19 -24
-88 -5 -30 8 -67 15 -82 15 -40 0 -35 19 17 70 25 24 45 48 45 52 0 4 -30 6
-67 5 l-68 -2 -3 84 c-2 61 1 87 10 92 20 13 67 10 140 -9z m-474 -38 c12 -8
31 -33 43 -55 11 -22 28 -48 38 -58 29 -29 34 -78 11 -101 -11 -11 -27 -20
-35 -20 -8 0 -42 -13 -75 -29 -33 -16 -62 -25 -65 -20 -4 5 -1 36 6 69 6 33 9
64 5 67 -3 4 -27 -17 -52 -45 -37 -42 -49 -50 -60 -41 -8 6 -14 16 -14 21 0 6
-18 33 -40 60 -22 28 -40 54 -40 59 0 25 167 108 220 109 20 0 46 -7 58 -16z
m2421 -49 c61 -30 144 -77 184 -104 109 -74 205 -171 169 -171 -5 0 -40 11
-78 24 -82 28 -234 128 -340 224 -113 102 -100 108 65 27z m631 -235 c12 -64
13 -140 2 -140 -15 0 -38 34 -61 90 -23 56 -46 213 -35 232 10 17 83 -124 94
-182z m128 -27 c38 -76 63 -270 36 -280 -16 -6 -61 103 -73 177 -16 94 -14
140 4 140 8 0 23 -17 33 -37z m-426 -67 c83 -31 74 -51 -28 -61 -68 -8 -138 4
-259 41 -128 41 -119 46 70 41 129 -3 182 -8 217 -21z m-3197 -48 c23 -24 53
-53 68 -65 18 -15 27 -33 27 -52 0 -25 -8 -34 -52 -59 -29 -16 -62 -39 -72
-51 -19 -21 -45 -28 -47 -13 -4 58 -11 107 -15 111 -6 6 -54 -40 -54 -53 0 -6
-7 -19 -15 -29 -13 -18 -17 -15 -74 40 -34 32 -61 64 -61 71 0 17 75 88 130
124 64 41 110 34 165 -24z m903 -29 c32 -34 62 -71 69 -82 16 -28 16 -72 2
-100 -19 -35 -137 -147 -155 -147 -17 0 -145 130 -138 142 4 7 112 24 127 20
5 -2 7 3 5 10 -3 7 -25 24 -51 38 -25 14 -49 29 -53 33 -4 3 9 24 29 46 20 22
43 54 52 70 24 47 49 40 113 -30z m2895 -16 c43 -99 54 -158 49 -257 -2 -28
-3 -29 -22 -11 -29 26 -49 89 -60 190 -17 156 -10 174 33 78z m-449 -49 c54
-21 -36 -54 -147 -54 -64 0 -177 19 -177 31 0 3 39 13 88 22 81 14 200 15 236
1z m622 -167 c21 -63 27 -102 28 -169 0 -48 -3 -91 -8 -95 -25 -25 -76 122
-76 220 0 64 11 137 21 132 4 -3 20 -42 35 -88z m-462 15 c27 -10 51 -23 53
-29 9 -27 -171 -34 -265 -9 -157 40 -150 56 26 56 104 -1 149 -5 186 -18z
m-3083 -63 c55 -27 123 -92 143 -134 15 -30 15 -38 3 -67 -8 -18 -24 -44 -36
-57 -11 -13 -21 -32 -21 -42 0 -21 -45 -69 -64 -69 -7 0 -25 9 -39 20 -14 11
-28 20 -31 20 -15 0 -86 54 -86 64 0 7 27 24 61 39 62 28 70 47 19 47 -16 0
-32 5 -35 10 -3 6 -17 10 -31 10 l-25 0 31 58 c16 31 30 67 30 79 0 12 8 27
18 32 22 13 17 14 63 -10z m3716 -123 c21 -51 23 -71 21 -179 -3 -105 -5 -122
-20 -125 -23 -4 -56 105 -52 173 2 28 3 83 3 123 1 89 15 92 48 8z m-473 21
c42 -19 56 -31 49 -38 -19 -19 -124 -22 -199 -6 -81 17 -174 54 -174 69 0 7
49 9 133 6 118 -3 138 -7 191 -31z m-3916 -87 c87 -82 89 -98 21 -146 -25 -17
-58 -43 -73 -58 -16 -14 -32 -23 -36 -21 -5 3 -12 34 -15 70 -4 36 -10 65 -14
65 -4 0 -19 -25 -35 -55 -33 -67 -45 -75 -64 -46 -9 12 -35 36 -59 52 -52 36
-54 56 -10 105 59 68 117 104 167 103 42 0 50 -4 118 -69z m3932 -55 c82 -8
129 -22 161 -46 20 -16 22 -20 9 -29 -37 -24 -197 0 -285 42 -62 30 -60 52 3
44 26 -3 76 -8 112 -11z m631 -62 c31 -94 24 -206 -19 -298 -17 -36 -34 -65
-37 -65 -14 0 -45 89 -45 131 0 25 11 91 24 145 13 54 27 111 30 127 10 43 23
32 47 -40z m-4120 -122 c55 -37 68 -48 102 -89 35 -43 34 -68 -3 -123 -16 -24
-30 -53 -30 -65 0 -22 -36 -61 -60 -64 -27 -4 -36 0 -66 25 -16 14 -33 25 -39
25 -5 0 -23 11 -40 24 l-30 24 39 16 c21 9 41 16 45 16 3 0 17 9 30 19 l24 19
-52 11 c-29 6 -59 11 -66 11 -19 0 -19 29 -1 55 7 11 19 38 25 60 7 22 14 46
16 53 7 21 60 13 106 -17z m3596 -2 c112 -16 254 -82 237 -110 -20 -32 -226
28 -316 93 -29 20 -29 44 1 33 9 -4 44 -11 78 -16z m648 -56 c14 -38 17 -143
6 -209 -13 -71 -66 -184 -88 -184 -6 0 -17 16 -24 37 -22 67 -3 159 70 346 12
31 26 35 36 10z m-502 -144 c96 -30 179 -76 191 -106 7 -18 -67 -16 -117 1
-51 19 -198 116 -191 127 7 12 3 13 117 -22z m-4570 -3 c19 -13 49 -27 66 -31
31 -7 71 -47 71 -71 0 -7 -18 -32 -40 -56 -23 -24 -50 -61 -62 -83 l-21 -40
-19 44 c-10 24 -21 54 -24 68 -10 39 -27 21 -42 -45 -8 -34 -19 -62 -25 -62
-5 0 -23 10 -40 23 -17 12 -47 27 -67 33 -32 9 -35 13 -34 47 1 40 34 94 95
159 44 46 88 51 142 14z m2555 -39 c20 -7 37 -18 36 -25 -1 -6 -2 -24 -2 -39
-2 -24 -3 -25 -15 -10 -18 26 -136 47 -259 47 -107 0 -266 -21 -448 -61 -182
-39 -376 -69 -443 -69 -120 0 -107 105 -107 -868 0 -466 4 -852 8 -858 11 -17
130 -23 255 -13 128 10 168 16 437 72 183 38 207 40 383 43 168 1 187 0 187
-15 0 -14 -18 -16 -152 -17 -157 -2 -223 -11 -498 -69 -209 -44 -367 -65 -502
-65 l-128 0 0 910 0 910 53 0 c62 0 325 41 452 70 122 28 293 59 390 70 99 11
302 4 353 -13z m572 2 c36 -6 128 -24 204 -40 188 -41 413 -78 516 -87 l85 -7
0 -905 0 -905 -110 -3 c-136 -4 -259 10 -446 49 -308 65 -418 80 -574 82
l-150 2 -1 897 c0 493 2 902 6 907 17 28 318 34 470 10z m2071 -111 c3 -94 -3
-142 -22 -200 -24 -72 -71 -152 -91 -156 -23 -4 -33 68 -19 141 11 60 105 267
121 267 6 0 11 -24 11 -52z m-2741 31 c35 -5 66 -12 68 -14 6 -6 11 -96 6
-109 -4 -10 -19 -10 -67 1 -74 15 -257 17 -347 3 -36 -6 -166 -31 -290 -55
-174 -34 -381 -65 -436 -65 -2 0 -4 -7 -4 -17 0 -14 12 -15 118 -9 64 3 171
17 237 31 66 14 176 37 245 51 127 26 326 36 478 24 69 -6 71 -8 69 -80 l-2
-45 -40 2 c-22 1 -94 5 -160 9 -129 7 -217 -3 -450 -51 -198 -41 -338 -65
-380 -65 -64 0 -115 -12 -115 -25 0 -8 5 -15 10 -17 34 -11 342 26 425 52 157
48 446 78 587 60 53 -7 101 -9 106 -6 13 8 22 -18 22 -64 0 -68 -1 -68 -88
-52 -51 9 -119 12 -202 9 -117 -5 -195 -18 -580 -96 -25 -5 -98 -15 -163 -22
-97 -11 -117 -16 -115 -28 6 -29 168 -15 438 39 371 74 419 78 637 54 56 -6
61 -9 66 -33 3 -14 3 -37 2 -51 -2 -14 -4 -34 -4 -45 -1 -13 -4 -16 -9 -8 -4
6 -55 17 -113 24 -137 16 -278 2 -529 -51 -206 -43 -286 -56 -407 -66 -75 -5
-83 -8 -83 -27 0 -19 4 -20 98 -13 104 7 150 15 418 70 235 48 362 60 483 45
53 -6 106 -11 119 -11 26 -1 35 -25 28 -78 -3 -19 -5 -39 -5 -44 -1 -4 -13 -6
-28 -2 -157 34 -327 26 -595 -30 -212 -44 -396 -73 -465 -74 -47 0 -53 -2 -53
-22 0 -21 2 -21 103 -15 56 4 203 27 327 52 337 68 452 80 575 65 55 -8 109
-14 120 -15 17 -1 20 -9 21 -50 2 -70 -4 -89 -24 -73 -11 10 -67 13 -211 13
-190 0 -282 -10 -413 -46 -78 -21 -258 -51 -373 -62 -104 -11 -120 -15 -123
-31 -4 -18 2 -18 100 -14 58 3 180 21 278 41 397 79 399 80 558 73 217 -10
201 -6 208 -43 3 -18 3 -48 0 -67 -6 -33 -8 -34 -39 -25 -18 6 -84 13 -148 16
-126 6 -253 -6 -409 -39 -52 -11 -135 -29 -185 -39 -49 -11 -150 -25 -224 -31
-93 -9 -135 -17 -139 -26 -19 -50 78 -41 518 50 198 41 211 42 380 41 199 -1
232 -4 242 -18 9 -12 10 -71 2 -102 -5 -18 -10 -20 -37 -12 -17 5 -79 12 -137
15 -153 10 -281 -8 -645 -85 -55 -12 -149 -25 -210 -29 -101 -6 -110 -9 -110
-27 0 -19 6 -20 80 -17 93 4 231 27 475 79 162 34 188 37 340 37 91 0 183 -5
205 -10 l40 -10 1 -58 c0 -31 -2 -59 -5 -61 -4 -1 -37 3 -76 11 -147 28 -297
14 -659 -60 -93 -19 -222 -41 -287 -47 -104 -11 -119 -15 -119 -31 0 -14 8
-18 40 -18 66 0 255 29 450 70 267 56 376 66 525 50 66 -7 123 -18 127 -24 11
-15 10 -88 -1 -105 -8 -12 -16 -12 -58 0 -32 9 -93 13 -188 12 -139 -1 -227
-14 -510 -74 -55 -11 -163 -28 -240 -38 -109 -13 -140 -20 -140 -31 0 -8 11
-16 24 -18 41 -6 281 29 471 68 248 52 369 64 510 50 60 -6 114 -9 120 -5 6 3
10 -4 10 -18 l0 -24 -162 -6 c-161 -6 -277 -24 -558 -87 -113 -25 -427 -41
-439 -22 -9 16 -7 1624 3 1640 4 7 29 12 62 12 75 0 161 13 419 65 121 25 252
49 290 54 99 12 239 13 315 0z m127 -71 c-3 -7 -5 -2 -5 12 0 14 2 19 5 13 2
-7 2 -19 0 -25z m2094 -18 c100 -39 152 -69 177 -98 20 -25 14 -32 -24 -32
-52 0 -168 60 -234 120 -68 62 -54 64 81 10z m-4085 -22 c77 -31 134 -85 134
-127 0 -17 -7 -42 -15 -55 -9 -13 -18 -41 -20 -62 -6 -44 -39 -84 -69 -84 -12
0 -41 9 -65 20 -24 11 -51 20 -61 20 -10 0 -22 6 -28 13 -9 10 2 23 46 57 l57
45 -65 5 c-62 5 -65 6 -62 30 1 14 5 50 8 80 3 30 7 61 9 68 7 19 69 14 131
-10z m1991 -30 c-3 -7 -5 -2 -5 12 0 14 2 19 5 13 2 -7 2 -19 0 -25z m0 -50
c-3 -7 -5 -2 -5 12 0 14 2 19 5 13 2 -7 2 -19 0 -25z m2098 -58 c3 -5 13 -10
21 -10 25 0 143 -62 184 -97 22 -19 40 -43 40 -54 0 -10 -2 -19 -4 -19 -15 0
-128 48 -160 68 -45 28 -126 101 -126 113 0 12 37 11 45 -1z m605 -140 c-26
-105 -132 -272 -161 -254 -5 3 -9 29 -9 58 0 41 9 69 43 136 23 47 62 112 87
144 l45 60 3 -49 c2 -27 -2 -70 -8 -95z m-2703 63 c-3 -10 -5 -4 -5 12 0 17 2
24 5 18 2 -7 2 -21 0 -30z m0 -60 c-3 -10 -5 -4 -5 12 0 17 2 24 5 18 2 -7 2
-21 0 -30z m-2810 -18 c19 -8 52 -15 73 -15 22 0 47 -8 61 -19 22 -18 23 -21
10 -53 -7 -18 -22 -61 -33 -95 -11 -34 -25 -64 -33 -66 -8 -4 -23 14 -39 44
-15 27 -31 49 -37 49 -5 0 -9 -30 -9 -66 l0 -66 -32 6 c-18 3 -59 9 -90 12
l-58 7 6 56 c11 113 47 190 99 211 29 13 42 12 82 -5z m2810 -82 c-3 -10 -5
-4 -5 12 0 17 2 24 5 18 2 -7 2 -21 0 -30z m2341 -78 c56 -48 79 -82 64 -97
-26 -26 -156 58 -216 140 -20 27 -36 55 -36 61 0 15 137 -61 188 -104z m421
-73 c-33 -99 -46 -121 -106 -180 -49 -48 -92 -70 -103 -51 -8 12 2 67 20 114
13 35 203 226 211 212 4 -5 -6 -48 -22 -95z m-2762 41 c-3 -10 -5 -4 -5 12 0
17 2 24 5 18 2 -7 2 -21 0 -30z m-2050 -39 c59 -29 76 -62 61 -124 -4 -19 -8
-59 -8 -87 0 -85 -26 -93 -194 -54 l-30 6 49 55 c55 62 49 71 -32 50 -25 -6
-48 -9 -50 -6 -7 6 -12 179 -5 190 10 17 155 -3 209 -30z m4358 -109 c62 -40
99 -77 115 -116 17 -41 7 -46 -44 -22 -57 28 -106 72 -160 143 -66 87 -55 86
89 -5z m-2308 -2 c-3 -10 -5 -4 -5 12 0 17 2 24 5 18 2 -7 2 -21 0 -30z m0
-95 c-3 -7 -5 -2 -5 12 0 14 2 19 5 13 2 -7 2 -19 0 -25z m2803 -14 c0 -39
-54 -144 -101 -198 -44 -49 -112 -91 -134 -82 -19 7 -9 69 19 121 22 40 180
185 203 185 7 0 13 -12 13 -26z m-2803 -36 c-3 -7 -5 -2 -5 12 0 14 2 19 5 13
2 -7 2 -19 0 -25z m2376 -127 c26 -24 56 -95 45 -107 -10 -9 -68 25 -114 68
-49 45 -94 116 -94 148 0 19 8 16 68 -31 37 -29 79 -64 95 -78z m-2376 27 c-2
-13 -4 -3 -4 22 0 25 2 35 4 23 2 -13 2 -33 0 -45z m-2722 -58 c16 -17 16 -25
-2 -114 -10 -53 -21 -96 -25 -96 -5 0 -26 16 -48 36 -49 44 -63 38 -46 -19 24
-76 26 -71 -34 -79 -30 -3 -68 -10 -84 -14 -22 -5 -32 -3 -43 11 -18 25 -17
129 2 193 21 69 51 92 124 93 31 1 67 4 81 8 32 9 55 4 75 -19z m2722 -137
c-2 -21 -4 -4 -4 37 0 41 2 58 4 38 2 -21 2 -55 0 -75z m-2109 88 c100 -12
118 -29 127 -124 9 -98 10 -145 4 -151 -7 -7 -199 -18 -199 -11 0 3 12 28 27
55 15 27 24 53 20 56 -3 4 -24 -1 -47 -10 -61 -24 -67 -22 -75 31 -4 26 -14
64 -22 85 -28 70 12 86 165 69z m4401 -90 c37 -33 101 -138 101 -164 0 -27 0
-27 -29 -13 -42 22 -114 108 -150 180 -46 93 -42 110 16 56 26 -25 54 -51 62
-59z m467 -36 c-13 -30 -44 -74 -69 -98 -67 -67 -177 -114 -177 -76 0 5 10 30
22 55 14 32 45 65 96 107 41 34 90 76 111 94 l36 32 3 -30 c2 -16 -8 -53 -22
-84z m-518 -205 c28 -38 57 -82 65 -97 21 -40 31 -109 18 -118 -14 -8 -77 58
-101 106 -34 66 -57 179 -36 179 2 0 26 -31 54 -70z m502 7 c0 -20 -39 -88
-78 -136 -25 -31 -58 -54 -116 -82 -44 -22 -86 -39 -92 -39 -59 0 27 124 118
169 24 12 68 40 98 61 60 43 70 47 70 27z m-2743 -134 c-3 -10 -5 -4 -5 12 0
17 2 24 5 18 2 -7 2 -21 0 -30z m2206 -138 c31 -63 50 -185 29 -185 -17 0 -52
41 -69 80 -21 50 -45 181 -38 209 6 24 6 24 27 -10 12 -19 35 -61 51 -94z
m-4853 95 c15 -15 20 -33 20 -77 0 -32 3 -67 5 -78 11 -43 -8 -49 -69 -20 -32
15 -60 25 -62 22 -3 -3 7 -28 21 -57 29 -57 27 -80 -5 -80 -11 0 -38 -9 -60
-20 -79 -40 -92 -24 -106 131 -5 60 -3 82 10 107 19 37 62 62 108 62 18 0 42
7 52 15 27 21 62 19 86 -5z m2647 -17 c-3 -10 -5 -4 -5 12 0 17 2 24 5 18 2
-7 2 -21 0 -30z m-1988 17 c34 -9 71 -44 71 -65 0 -7 14 -37 30 -68 33 -61 37
-89 17 -105 -7 -6 -46 -22 -87 -36 -76 -25 -98 -22 -84 14 11 29 17 90 8 90
-5 0 -26 -16 -47 -36 -43 -41 -66 -41 -80 1 -6 17 -23 49 -40 72 -16 23 -27
49 -24 57 10 26 130 79 192 85 6 1 25 -3 44 -9z m4648 -121 c-23 -59 -81 -123
-147 -161 -66 -37 -160 -60 -160 -39 0 24 75 113 114 136 86 51 191 103 198
99 3 -2 1 -18 -5 -35z m-591 -74 c9 -14 29 -66 45 -117 50 -161 31 -214 -34
-90 -28 54 -36 83 -42 150 -8 88 1 103 31 57z m474 -190 c-24 -42 -36 -54 -49
-50 -11 3 -38 -11 -72 -36 -62 -48 -154 -93 -169 -84 -5 3 -10 13 -10 21 0 21
70 95 105 110 17 8 71 36 120 63 50 27 94 45 99 41 5 -5 -6 -33 -24 -65z
m-570 3 c0 -6 11 -40 25 -75 21 -52 25 -77 23 -140 -2 -44 -8 -78 -14 -80 -28
-9 -84 122 -84 198 0 46 21 109 37 109 7 0 13 -5 13 -12z m-3694 -115 c94 -96
94 -107 4 -179 -35 -29 -67 -51 -71 -48 -4 2 -10 31 -14 64 -4 33 -11 62 -15
65 -5 3 -23 -20 -40 -50 -17 -30 -36 -55 -42 -55 -5 0 -19 11 -30 25 -11 14
-39 39 -64 56 -26 17 -44 38 -44 49 0 39 161 150 218 150 17 0 46 -23 98 -77z
m-778 -25 c5 -7 18 -40 27 -73 10 -33 23 -68 29 -77 17 -27 -3 -40 -44 -28
-79 23 -88 8 -35 -51 19 -22 35 -43 35 -49 0 -5 -22 -21 -48 -34 -27 -13 -54
-32 -61 -40 -8 -9 -19 -16 -26 -16 -21 0 -62 56 -84 115 -41 110 -20 184 60
205 21 6 39 16 39 22 0 32 86 52 108 26z m4922 -17 c0 -26 -45 -102 -82 -138
-46 -44 -97 -69 -165 -82 -52 -10 -74 0 -55 26 7 10 21 31 32 48 12 19 60 52
132 91 113 62 138 72 138 55z m-544 -227 c7 -79 -3 -124 -27 -124 -5 0 -19 21
-30 48 -26 60 -23 204 5 267 l18 40 14 -75 c7 -41 17 -111 20 -156z m-143 -83
c9 -72 8 -98 -4 -141 -8 -29 -19 -55 -26 -57 -18 -6 -45 54 -50 117 -4 37 0
76 12 116 33 114 50 106 68 -35z m567 55 c0 -24 -93 -113 -148 -141 -57 -28
-184 -46 -195 -28 -3 5 12 28 33 51 29 30 57 46 102 61 105 33 166 56 174 64
12 12 34 8 34 -7z m-4371 -199 c39 -38 71 -71 71 -72 0 -7 50 -54 122 -115 97
-81 96 -80 107 -80 12 0 60 57 90 108 13 22 34 51 46 64 12 13 30 36 39 51 10
15 24 27 30 27 7 0 42 -20 79 -45 37 -25 70 -45 74 -45 3 0 32 -18 64 -40 32
-22 63 -40 68 -40 5 0 15 -7 22 -16 7 -9 22 -20 34 -25 11 -6 47 -26 80 -45
94 -54 192 -101 285 -135 320 -119 324 -120 530 -155 115 -20 441 -23 575 -5
183 25 379 72 500 122 11 5 54 22 95 38 60 23 286 134 379 186 42 24 120 73
209 133 52 34 104 64 115 65 17 2 36 -20 88 -98 37 -54 79 -108 94 -118 l26
-19 37 35 c187 178 223 204 278 209 l39 3 -2 -75 c-1 -41 -6 -113 -12 -160 -6
-47 -13 -113 -16 -147 l-5 -63 250 0 c140 0 251 -4 255 -9 6 -11 -1 -18 -74
-81 -75 -64 -99 -86 -157 -141 -29 -27 -55 -49 -58 -49 -3 0 -14 -8 -24 -17
-38 -36 -316 -243 -326 -243 -4 0 -26 -15 -49 -34 -59 -47 -179 -116 -203
-116 -17 0 -84 68 -84 85 0 6 -17 28 -100 127 l-25 29 -90 -44 c-122 -60 -290
-132 -345 -147 -25 -7 -54 -16 -65 -20 -133 -53 -436 -121 -643 -145 -245 -28
-688 -14 -806 25 -16 6 -40 10 -54 10 -14 0 -39 4 -56 10 -17 5 -85 21 -151
35 -66 15 -151 38 -190 52 -38 13 -92 31 -120 39 -27 9 -54 20 -59 25 -6 5
-16 9 -22 9 -7 0 -41 13 -76 29 -35 16 -98 43 -140 60 -42 17 -100 43 -127 58
l-51 27 -25 -30 c-14 -16 -25 -32 -25 -35 0 -3 -8 -15 -17 -27 -10 -11 -45
-57 -77 -101 -33 -45 -66 -81 -74 -81 -8 0 -31 13 -51 29 -21 17 -50 36 -67
43 -27 12 -92 57 -206 143 -25 19 -50 35 -55 35 -4 0 -24 15 -43 33 -19 18
-49 41 -66 52 -18 11 -53 38 -79 60 -27 22 -69 57 -94 79 -25 21 -76 66 -112
100 -36 33 -76 69 -87 78 -12 10 -22 25 -22 33 0 13 34 15 255 15 197 0 255 3
255 13 0 6 -5 44 -11 82 -11 74 -37 293 -46 383 -7 70 4 68 96 -21z"/>
<path d="M5626 6135 c-32 -7 -62 -17 -67 -22 -5 -5 -8 -367 -7 -863 l3 -853
175 -2 c164 -1 188 -4 379 -44 288 -59 376 -71 544 -71 l147 0 -2 868 -3 867
-115 7 c-73 4 -208 24 -370 56 -140 27 -285 55 -321 61 -86 14 -288 12 -363
-4z m464 -54 c58 -11 139 -28 180 -36 140 -31 355 -65 407 -65 78 0 83 -4 83
-65 l0 -54 -87 5 c-79 5 -398 60 -578 100 -97 22 -363 29 -435 12 -36 -9 -55
-19 -55 -28 0 -10 9 -14 30 -13 17 1 77 5 135 9 125 8 259 -6 445 -46 253 -55
310 -63 427 -64 l118 -1 0 -74 c0 -63 -2 -72 -16 -67 -9 3 -48 9 -87 12 -92 8
-183 23 -442 75 -155 31 -243 43 -336 46 -140 6 -267 -10 -276 -33 -3 -8 -3
-17 -1 -20 3 -2 58 1 122 7 136 14 272 3 463 -37 258 -54 313 -63 418 -72 61
-5 120 -6 133 -1 l22 9 0 -156 c0 -143 -1 -155 -17 -150 -10 2 -52 8 -93 11
-107 9 -244 32 -405 66 -266 57 -418 69 -565 46 -59 -10 -75 -16 -78 -30 -4
-18 2 -18 85 -10 183 17 299 6 624 -61 191 -40 354 -61 410 -53 l39 5 0 -154
c0 -144 -1 -154 -17 -146 -10 5 -60 13 -111 17 -98 7 -262 36 -472 82 -113 25
-144 27 -327 28 -179 0 -204 -2 -220 -17 -27 -28 -5 -42 43 -29 48 13 285 14
351 2 26 -5 89 -17 138 -26 50 -10 142 -27 205 -40 212 -41 255 -47 333 -44
l77 4 0 -231 0 -230 -127 13 c-71 7 -204 28 -298 48 -366 75 -508 89 -650 64
-73 -12 -95 -23 -79 -39 8 -8 40 -8 117 1 133 15 258 3 527 -51 261 -52 411
-74 466 -67 l45 5 -3 -107 -3 -106 -165 1 c-127 1 -188 6 -265 22 -364 78
-458 92 -617 92 l-118 0 0 820 c0 694 2 821 14 826 74 29 325 26 486 -5z"/>
<path d="M5670 5657 c-48 -9 -66 -17 -68 -29 -4 -22 1 -22 136 -6 121 14 225
4 457 -42 420 -85 555 -98 555 -55 0 11 -11 15 -38 15 -66 0 -248 29 -482 76
-251 51 -435 64 -560 41z"/>
<path d="M5735 5343 c-83 -11 -135 -25 -135 -38 0 -22 22 -23 110 -8 115 20
250 6 575 -58 189 -38 275 -50 355 -52 92 -2 105 0 108 16 3 14 -4 17 -48 17
-70 0 -233 24 -410 61 -240 50 -461 75 -555 62z"/>
<path d="M5670 5009 c-60 -10 -80 -23 -63 -40 7 -7 27 -7 69 0 129 24 283 13
559 -42 355 -70 477 -87 504 -69 8 6 11 17 8 26 -5 12 -20 16 -59 16 -88 0
-223 19 -363 50 -294 65 -502 84 -655 59z"/>
<path d="M5681 4849 c-68 -9 -92 -22 -75 -39 7 -7 33 -7 80 0 152 22 260 12
574 -50 299 -60 472 -81 485 -60 14 23 -14 32 -124 41 -61 5 -155 18 -209 29
-418 89 -549 103 -731 79z"/>
<path d="M5735 4534 c-85 -11 -135 -26 -135 -40 0 -17 4 -17 128 -3 113 12
285 -1 427 -33 237 -53 484 -92 552 -86 25 2 39 8 41 19 2 13 -13 17 -92 23
-52 3 -153 18 -223 31 -173 34 -272 53 -368 70 -85 15 -279 26 -330 19z"/>
<path d="M3405 3328 c4 -29 11 -77 16 -107 5 -30 9 -78 9 -107 0 -29 5 -56 10
-59 10 -6 6 -67 -5 -84 -2 -4 -93 -6 -201 -3 l-198 4 35 -35 c19 -18 57 -51
84 -73 28 -21 52 -42 55 -45 8 -11 179 -139 184 -139 3 0 16 -10 29 -22 13
-13 34 -30 46 -38 25 -16 78 -55 124 -91 35 -26 44 -19 23 18 -9 15 -50 100
-91 188 -87 183 -87 169 -2 269 74 86 117 143 117 154 0 6 -28 34 -61 63 -34
30 -86 78 -115 107 -30 28 -56 52 -59 52 -3 0 -3 -24 0 -52z"/>
<path d="M3884 3333 c-21 -27 -54 -68 -73 -93 -20 -25 -38 -47 -42 -50 -10 -8
-189 -249 -189 -255 0 -8 107 -75 120 -75 5 0 10 6 10 13 0 7 21 31 46 53 25
21 51 44 58 50 6 5 45 39 86 74 41 35 77 67 80 71 16 20 47 25 77 13 17 -7 34
-18 37 -23 3 -5 1 -56 -5 -113 -5 -56 -14 -147 -19 -202 -5 -63 -13 -102 -22
-108 -10 -7 -9 -11 6 -23 18 -14 21 -12 38 38 10 28 25 66 33 84 8 17 15 35
15 40 0 4 11 28 24 53 13 25 26 57 29 71 4 15 15 37 25 49 17 21 21 22 55 11
52 -17 50 -29 -24 -188 -16 -34 -29 -69 -29 -77 0 -8 -4 -18 -10 -21 -18 -11
-11 -33 13 -39 44 -11 138 -58 144 -72 3 -7 -2 -27 -10 -44 l-16 -30 37 -16
c89 -38 134 -54 150 -54 14 0 21 17 35 76 10 42 15 79 12 82 -3 3 -5 -2 -5
-10 0 -35 -25 -39 -94 -17 -60 20 -66 24 -66 49 0 15 8 38 18 49 l17 22 55
-22 c30 -12 63 -29 72 -37 21 -17 19 -21 43 93 9 44 19 86 21 93 5 16 33 15
64 -3 14 -8 35 -14 46 -15 12 0 52 -9 88 -20 54 -17 69 -26 82 -52 27 -52 12
-126 -29 -140 -4 -2 0 -18 9 -37 28 -57 1 -141 -52 -161 -31 -12 -90 -13 -112
-1 -24 12 -101 23 -81 11 15 -8 48 -18 139 -40 101 -24 100 -24 100 -4 0 11
17 53 38 94 156 307 139 280 180 280 20 0 42 -4 49 -8 12 -7 37 -78 68 -187 9
-33 21 -71 25 -85 5 -14 12 -41 15 -60 11 -59 16 -70 32 -70 13 0 14 25 11
188 l-3 187 136 3 136 3 32 -36 c24 -27 31 -45 31 -76 0 -46 -24 -99 -45 -99
-26 0 -27 -21 -3 -48 14 -15 39 -49 56 -76 38 -59 31 -69 -44 -64 -38 3 -48 8
-62 32 -9 16 -24 37 -32 47 -8 9 -23 29 -33 43 -11 16 -27 26 -42 26 -24 0
-25 -2 -25 -75 l0 -75 -105 3 c-110 4 -135 13 -135 51 0 35 -12 44 -77 53 -70
11 -72 10 -93 -32 -11 -20 -26 -32 -45 -35 -28 -6 -27 -7 20 -18 123 -28 240
-37 505 -37 151 0 297 4 324 8 l50 9 -51 17 c-74 25 -102 47 -125 97 -25 59
-32 102 -24 159 6 37 17 56 56 95 54 54 87 65 173 58 34 -3 64 -13 84 -27 62
-46 98 -169 74 -258 -15 -54 -60 -99 -119 -118 l-47 -15 45 5 c78 9 143 21
225 44 44 13 121 33 170 46 150 40 184 53 400 147 134 58 329 160 354 184 2 2
-5 11 -17 21 -11 10 -33 43 -48 73 -15 30 -29 57 -31 59 -1 2 -11 -3 -20 -11
-10 -9 -34 -23 -53 -33 -19 -10 -36 -19 -38 -20 -4 -4 44 -93 60 -112 5 -7 7
-21 3 -31 -6 -21 -58 -48 -73 -38 -8 5 -121 205 -166 293 -24 47 -20 62 19 79
42 17 52 13 71 -30 8 -17 20 -40 27 -51 6 -11 13 -22 14 -24 3 -5 113 47 113
54 0 3 -11 28 -25 55 -33 66 -32 84 8 104 31 15 33 15 47 -5 20 -29 70 -118
118 -209 21 -41 45 -86 53 -100 8 -14 15 -27 16 -29 1 -1 17 8 35 22 18 14 61
40 96 58 37 19 62 39 62 48 0 9 -17 34 -38 56 -22 22 -45 52 -53 66 -14 26
-45 66 -105 138 -17 20 -45 57 -63 84 -17 26 -36 47 -41 47 -6 0 -10 6 -10 14
0 7 -7 19 -16 27 -13 10 -21 9 -47 -6 -18 -10 -41 -26 -52 -36 -19 -16 -193
-119 -202 -119 -2 0 -23 -13 -46 -29 -55 -37 -140 -80 -252 -125 -49 -21 -112
-47 -140 -60 -65 -30 -359 -109 -510 -137 -27 -5 -164 -10 -303 -10 -257 1
-347 9 -487 47 -33 9 -76 20 -95 26 -19 5 -51 13 -70 18 -19 5 -60 19 -90 31
-30 11 -84 31 -120 44 -62 22 -209 86 -240 105 -8 6 -31 18 -50 29 -68 36 -96
53 -155 91 -96 62 -222 140 -228 140 -3 0 -23 -21 -43 -47z m2946 -675 c0 -11
-56 -38 -80 -38 -11 0 -33 14 -48 30 l-27 31 -62 -27 c-62 -27 -63 -28 -63
-68 0 -57 -7 -63 -80 -81 -3 0 -14 -6 -25 -12 -11 -5 -36 -13 -55 -17 -33 -6
-39 -2 -90 50 -75 76 -86 81 -103 47 -8 -16 -13 -35 -11 -43 2 -8 7 -31 12
-51 12 -48 4 -59 -43 -62 l-38 -2 -23 70 c-13 39 -32 110 -43 158 -11 48 -26
101 -34 117 l-15 29 44 15 c56 19 71 7 80 -64 4 -30 12 -50 19 -50 7 0 32 38
56 85 38 76 46 86 78 95 51 14 71 12 71 -6 0 -14 -31 -77 -71 -142 -13 -23
-11 -27 66 -99 44 -41 87 -78 95 -83 14 -7 15 15 12 191 l-4 199 43 20 44 20
147 -153 c81 -83 148 -155 148 -159z"/>
<path d="M6540 2770 c0 -27 2 -50 4 -50 12 0 66 23 66 28 -1 9 -58 72 -65 72
-3 0 -5 -22 -5 -50z"/>
<path d="M7433 3332 c-28 -26 -77 -70 -109 -99 l-58 -52 38 -53 c21 -29 62
-84 92 -123 55 -71 65 -103 40 -124 -8 -6 -24 -40 -37 -74 -13 -34 -45 -106
-71 -160 -27 -54 -46 -102 -43 -107 5 -9 69 27 110 62 11 9 65 50 121 90 142
103 280 213 334 266 13 12 -10 13 -186 9 -119 -3 -205 -2 -211 4 -6 6 -2 62 9
147 10 75 22 165 26 200 5 34 6 62 3 62 -3 0 -29 -22 -58 -48z"/>
<path d="M3958 2977 c-35 -28 -35 -44 -3 -59 30 -14 31 -13 39 40 7 48 2 50
-36 19z"/>
<path d="M3821 2850 c-13 -11 -35 -20 -50 -20 -19 0 0 -15 79 -60 99 -56 150
-76 122 -48 -7 7 -9 27 -6 52 l5 41 -58 28 c-32 15 -60 27 -63 27 -3 -1 -16
-10 -29 -20z"/>
<path d="M3589 2793 c46 -87 129 -262 135 -288 l7 -28 20 22 c34 36 119 152
119 161 0 5 -19 18 -42 29 -54 25 -140 75 -196 112 -57 38 -67 37 -43 -8z"/>
<path d="M7278 2792 c-3 -8 -68 -47 -155 -93 -105 -55 -102 -46 -38 -135 31
-44 60 -80 66 -82 5 -2 14 9 20 24 5 16 26 61 45 101 19 40 34 78 34 85 0 7
11 33 25 57 14 23 25 45 25 47 0 7 -18 4 -22 -4z"/>
<path d="M4717 2743 c-4 -3 -7 -19 -7 -35 0 -23 4 -28 24 -28 14 0 28 -4 31
-10 11 -17 54 -11 65 9 13 25 -7 47 -58 61 -44 12 -47 12 -55 3z"/>
<path d="M5808 2664 c-37 -20 -48 -43 -48 -103 0 -84 32 -124 100 -124 44 0
90 46 90 91 0 59 -20 106 -54 130 -37 26 -51 27 -88 6z"/>
<path d="M5406 2642 c-3 -5 -3 -25 1 -45 6 -41 14 -43 78 -26 89 24 74 79 -21
79 -29 0 -55 -4 -58 -8z"/>
<path d="M5085 2575 c-22 -39 -21 -41 19 -51 28 -7 29 -6 23 26 -4 18 -7 39
-7 46 0 25 -16 15 -35 -21z"/>
<path d="M4677 2592 c-2 -4 -7 -19 -10 -33 -7 -28 1 -34 70 -57 67 -21 100 52
35 76 -39 15 -91 22 -95 14z"/>
<path d="M4225 2582 c6 -5 26 -15 45 -21 30 -10 33 -10 20 2 -8 8 -28 18 -45
21 -19 5 -26 4 -20 -2z"/>
<path d="M4598 2443 c7 -3 16 -2 19 1 4 3 -2 6 -13 5 -11 0 -14 -3 -6 -6z"/>
<path d="M3327 9279 c-47 -11 -74 -24 -214 -108 -62 -36 -112 -72 -113 -79 0
-18 37 -84 140 -252 46 -74 106 -174 134 -222 28 -48 57 -88 65 -88 14 0 125
61 183 101 15 11 31 19 37 19 20 0 115 97 132 135 23 50 25 153 4 213 -20 56
-104 181 -147 217 -64 54 -150 79 -221 64z m93 -134 c38 -20 92 -87 129 -162
38 -76 42 -147 11 -186 -22 -28 -142 -107 -162 -107 -12 0 -41 42 -95 140 -11
19 -46 76 -77 127 -32 51 -56 100 -54 109 4 24 142 94 184 94 19 0 48 -7 64
-15z"/>
<path d="M7398 9263 c-8 -10 -47 -72 -87 -138 -40 -66 -111 -180 -157 -254
-46 -74 -84 -140 -84 -146 0 -6 39 -34 88 -63 48 -29 132 -82 187 -117 55 -35
105 -64 112 -65 11 0 53 63 53 81 0 8 -77 61 -212 145 -29 18 -47 36 -48 48 0
18 243 421 261 432 21 12 6 41 -35 67 -51 32 -58 33 -78 10z"/>
<path d="M2802 8960 c-23 -16 -42 -36 -42 -44 0 -12 96 -159 248 -380 17 -26
32 -51 32 -57 0 -5 4 -9 8 -9 4 0 21 -22 37 -50 17 -27 33 -50 37 -50 11 0
108 62 108 70 0 4 -24 40 -53 81 -29 41 -66 95 -81 119 -55 91 -231 344 -242
347 -6 2 -29 -10 -52 -27z"/>
<path d="M7965 8760 c-285 -184 -363 -235 -412 -264 -29 -17 -53 -37 -53 -43
0 -16 78 -73 99 -73 9 0 40 16 68 35 29 19 59 35 68 35 9 0 51 -26 93 -58 42
-33 87 -64 100 -71 26 -14 27 -23 5 -113 l-17 -69 30 -24 c45 -37 73 -50 84
-39 10 10 170 641 170 671 0 18 -63 72 -100 85 -9 3 -66 -28 -135 -72z m85
-112 c0 -22 -58 -210 -67 -219 -4 -4 -39 15 -77 43 -79 58 -82 48 43 132 87
58 101 64 101 44z"/>
<path d="M2439 8688 c-95 -56 -258 -182 -259 -200 0 -9 17 -38 38 -65 20 -26
44 -58 52 -70 38 -54 284 -374 296 -384 11 -9 37 6 126 74 138 103 163 128
195 192 52 102 12 244 -103 368 -75 80 -130 109 -218 114 -66 4 -75 2 -127
-29z m156 -107 c35 -16 70 -48 127 -119 58 -72 76 -163 41 -211 -24 -32 -133
-121 -148 -121 -6 0 -38 37 -70 82 -33 45 -64 86 -70 92 -33 36 -125 167 -125
178 0 13 106 88 146 102 51 19 52 19 99 -3z"/>
<path d="M8393 8353 c-70 -81 -136 -156 -146 -167 -10 -12 -28 -32 -39 -46
-12 -14 -41 -47 -65 -74 -24 -26 -43 -56 -43 -66 0 -22 66 -74 84 -67 8 3 69
70 137 148 68 78 136 156 151 173 15 17 27 25 28 18 0 -14 -186 -390 -201
-406 -18 -19 -8 -43 32 -79 22 -21 45 -37 50 -37 5 0 31 15 57 33 240 169 344
238 352 235 6 -2 -7 -22 -27 -44 -21 -22 -59 -65 -83 -95 -25 -30 -63 -74 -87
-99 -50 -54 -103 -120 -103 -129 0 -3 18 -21 40 -39 26 -22 45 -30 54 -25 7 4
42 42 77 83 35 41 66 77 70 80 3 3 35 38 70 79 35 41 97 113 137 159 39 46 72
88 72 92 0 9 -134 130 -144 130 -4 0 -48 -29 -99 -64 -254 -175 -272 -187
-275 -173 -2 8 27 74 64 148 78 157 114 237 114 253 0 6 -17 26 -37 43 -21 18
-51 43 -67 57 -16 14 -33 26 -37 26 -4 0 -65 -66 -136 -147z"/>
<path d="M1967 8325 c-21 -20 -37 -40 -37 -45 0 -5 26 -38 58 -72 134 -146
215 -242 205 -245 -11 -4 -143 32 -336 91 -65 20 -127 36 -137 36 -10 0 -37
-18 -61 -40 -38 -35 -41 -41 -28 -57 58 -72 423 -469 433 -471 13 -3 86 55 86
70 0 5 -58 74 -130 153 -119 133 -143 165 -122 165 4 0 75 -20 157 -45 251
-76 304 -88 323 -73 51 40 72 63 72 77 0 9 -26 43 -58 76 -31 34 -91 98 -132
144 -41 46 -80 89 -85 95 -6 6 -43 48 -84 94 -41 45 -77 82 -81 82 -4 0 -23
-16 -43 -35z"/>
<path d="M1313 7701 c-93 -95 -169 -177 -171 -181 -2 -4 65 -75 149 -157 84
-81 168 -164 188 -183 20 -20 60 -58 89 -85 l53 -49 57 61 c31 33 110 116 175
183 l119 122 -33 34 c-18 19 -38 34 -45 34 -7 0 -65 -56 -131 -125 -65 -69
-123 -125 -129 -125 -20 0 -126 106 -123 123 2 8 53 65 112 127 l108 113 -32
34 c-18 18 -38 33 -44 33 -6 0 -60 -49 -120 -110 -59 -60 -113 -110 -119 -110
-16 1 -96 78 -96 93 0 7 52 66 115 132 63 66 114 125 115 131 0 5 -16 25 -35
44 l-35 34 -167 -173z"/>
<path d="M9295 7717 c-17 -18 -119 -117 -228 -221 -108 -104 -197 -194 -197
-200 0 -13 233 -252 282 -290 69 -52 180 -42 241 22 40 41 60 107 46 149 -6
19 -9 37 -6 40 3 3 28 6 56 7 116 4 186 125 134 234 -22 45 -260 292 -282 291
-9 0 -30 -15 -46 -32z m142 -204 c35 -38 66 -79 70 -92 14 -55 -39 -111 -90
-95 -30 9 -157 133 -157 153 0 20 80 101 99 101 9 0 44 -30 78 -67z m-197
-185 c71 -75 94 -117 85 -158 -9 -39 -40 -60 -89 -60 -35 0 -46 7 -112 73 -41
39 -76 79 -79 87 -7 18 92 118 117 119 10 1 44 -27 78 -61z"/>
<path d="M975 7296 c-17 -7 -54 -38 -82 -67 -54 -57 -193 -224 -193 -232 0 -3
66 -60 148 -128 81 -68 149 -125 152 -128 11 -12 186 -158 199 -166 10 -5 25
5 52 36 21 24 39 47 39 51 0 6 -27 30 -146 132 -19 15 -34 32 -34 37 0 5 28
44 62 87 71 90 88 125 88 184 -1 142 -159 249 -285 194z m128 -157 c16 -17 27
-41 27 -57 0 -32 -43 -102 -89 -146 l-30 -29 -64 52 c-36 28 -67 57 -70 64 -6
16 76 113 118 139 38 23 71 17 108 -23z"/>
<path d="M9705 7124 c-60 -53 -169 -148 -242 -211 -73 -63 -133 -120 -133
-127 0 -14 71 -86 85 -86 6 0 26 15 45 33 38 35 291 255 424 369 32 27 31 32
-16 87 -15 17 -33 31 -40 31 -8 0 -63 -43 -123 -96z"/>
<path d="M9584 6565 c-11 -75 -7 -79 71 -86 39 -4 130 -7 203 -8 98 -1 132 -4
132 -13 0 -7 -82 -60 -183 -117 -258 -148 -238 -131 -235 -205 l3 -61 110 -6
c61 -4 210 -10 333 -14 l222 -8 0 60 0 60 -61 7 c-34 3 -123 6 -198 6 -116 0
-179 9 -161 22 12 10 60 38 115 68 150 82 292 165 308 178 12 11 17 30 17 73
l0 57 -37 6 c-21 3 -157 8 -303 12 -146 3 -279 7 -297 9 -31 2 -33 0 -39 -40z"/>
<path d="M910 6155 c-69 -7 -183 -18 -255 -24 -71 -7 -136 -14 -142 -16 -20
-7 -17 -104 3 -112 14 -5 254 10 367 23 30 4 47 2 47 -5 0 -9 -209 -169 -347
-266 -48 -34 -50 -40 -43 -110 l5 -50 100 3 c108 2 545 41 557 48 5 3 8 30 8
60 l0 54 -48 0 c-43 0 -147 -8 -319 -25 -30 -3 -53 -1 -53 4 0 5 88 76 196
158 l196 147 -5 53 c-3 29 -8 57 -12 63 -8 13 -94 11 -255 -5z"/>
<path d="M9546 5930 c-4 -33 -4 -65 -1 -70 3 -5 35 -24 72 -42 l65 -33 -6 -70
c-13 -141 -18 -183 -25 -193 -4 -6 -36 -19 -71 -28 -36 -9 -71 -21 -77 -26 -8
-7 -13 -35 -13 -75 0 -57 2 -64 18 -59 9 3 67 19 127 36 173 49 202 57 335 95
215 63 203 58 213 94 4 18 7 51 5 73 -3 39 -4 40 -103 92 -303 158 -516 266
-524 266 -4 0 -11 -27 -15 -60z m386 -264 c85 -41 98 -52 71 -60 -88 -27 -218
-55 -224 -49 -4 5 -3 45 3 90 l11 82 31 -13 c17 -8 66 -30 108 -50z"/>
<path d="M905 5374 l-290 -174 1 -48 c0 -26 3 -59 7 -73 8 -31 11 -32 267 -85
91 -19 214 -45 274 -59 60 -14 121 -25 137 -25 28 0 29 0 22 48 -10 81 -11 81
-115 102 -54 11 -58 13 -63 43 -2 18 -12 77 -21 131 l-16 99 23 18 c13 10 43
29 67 41 38 21 42 27 42 59 0 62 -11 99 -29 98 -9 0 -146 -79 -306 -175z m109
-151 c20 -130 21 -123 -6 -123 -13 0 -67 9 -118 20 -51 11 -95 20 -97 20 -2 0
-3 4 -3 9 0 16 197 124 211 116 4 -3 9 -22 13 -42z"/>
<path d="M9417 5024 c-11 -19 -18 -112 -9 -118 23 -14 629 -129 641 -122 14 9
35 106 25 116 -9 8 -57 19 -339 74 -85 16 -230 43 -281 53 -17 3 -34 1 -37 -3z"/>
<path d="M1118 4796 c-85 -38 -114 -100 -123 -269 -6 -104 -11 -132 -27 -152
-11 -14 -27 -25 -37 -25 -40 0 -91 88 -91 157 0 12 16 39 36 58 l36 36 -14 57
c-8 35 -20 58 -29 60 -22 4 -96 -53 -114 -89 -57 -110 -8 -307 95 -376 59 -41
167 -27 217 28 42 46 56 98 63 233 6 118 9 131 29 148 30 24 62 23 95 -3 39
-31 56 -71 56 -135 0 -55 -2 -59 -45 -99 l-44 -42 16 -51 c20 -62 35 -65 99
-21 65 45 89 96 89 194 0 132 -52 243 -134 285 -45 23 -129 26 -173 6z"/>
<path d="M9360 4751 c-5 -10 -11 -38 -12 -61 l-3 -43 70 -18 c39 -10 117 -30
175 -44 143 -34 150 -36 150 -46 0 -4 -37 -19 -82 -33 -46 -14 -146 -46 -223
-71 -77 -25 -145 -45 -152 -45 -13 0 -34 -66 -37 -113 l-1 -28 180 -45 c99
-24 242 -60 319 -80 76 -19 141 -32 144 -29 13 12 30 100 22 109 -5 4 -59 21
-122 36 -62 15 -138 35 -168 43 -30 8 -67 18 -82 21 -16 4 -28 10 -28 15 0 4
60 27 133 51 72 23 180 58 238 77 l107 34 11 44 c11 43 14 85 7 85 -1 0 -57
14 -122 31 -65 16 -137 34 -159 39 -54 12 -327 79 -342 85 -7 2 -17 -4 -23
-14z"/>
<path d="M1390 4199 c-41 -33 -91 -74 -110 -89 -19 -16 -78 -63 -130 -105 -52
-42 -126 -102 -163 -132 -38 -30 -66 -60 -64 -66 2 -7 12 -35 21 -64 10 -29
25 -54 34 -57 41 -12 684 -56 694 -47 9 8 -22 113 -37 123 -5 4 -37 8 -71 8
-33 0 -67 6 -76 13 -18 14 -89 233 -82 250 3 7 30 31 60 55 30 24 54 51 54 60
0 35 -28 107 -41 109 -8 2 -48 -25 -89 -58z m-60 -320 c11 -39 19 -76 17 -82
-2 -8 -36 -11 -113 -8 -110 3 -127 6 -122 21 5 13 171 139 185 139 6 1 21 -31
33 -70z"/>
<path d="M9246 4060 c-56 -28 -84 -57 -116 -120 -87 -173 -51 -326 89 -375
115 -39 179 -4 286 158 62 93 86 117 121 117 33 0 47 -25 45 -81 -3 -83 -44
-139 -103 -139 -32 0 -36 -6 -53 -71 -12 -46 -12 -50 7 -60 33 -18 103 -1 150
35 117 89 156 305 71 394 -50 53 -144 67 -211 33 -39 -20 -112 -102 -142 -161
-10 -19 -32 -50 -49 -67 -72 -79 -156 -11 -130 104 18 82 63 123 133 123 42 0
44 2 52 74 l7 56 -59 0 c-38 -1 -73 -8 -98 -20z"/>
<path d="M9013 3548 c-6 -7 -18 -35 -27 -63 l-16 -49 60 -56 59 -55 -48 -120
-49 -120 -83 -5 c-81 -5 -84 -6 -98 -35 -8 -16 -18 -38 -23 -47 -4 -10 -8 -27
-8 -38 0 -20 6 -20 356 -20 l355 0 25 55 c27 63 30 90 10 102 -8 4 -49 42 -93
83 -295 281 -395 375 -402 378 -4 1 -13 -3 -18 -10z m286 -408 c33 -30 61 -58
61 -62 0 -11 -238 -10 -244 1 -6 9 39 127 56 148 11 14 12 13 127 -87z"/>
<path d="M1625 3435 c-60 -24 -127 -44 -148 -45 -20 0 -90 11 -155 26 -197 43
-266 54 -274 46 -13 -13 34 -123 56 -132 12 -4 77 -16 145 -26 77 -11 125 -23
128 -31 4 -10 -42 -81 -67 -103 -15 -13 -100 -129 -100 -137 0 -4 8 -34 17
-65 12 -37 23 -58 33 -58 8 0 69 73 135 162 66 89 128 169 137 177 9 9 64 34
122 55 147 54 144 51 120 116 -10 30 -23 55 -29 56 -5 2 -59 -17 -120 -41z"/>
<path d="M1825 3162 c-86 -81 -460 -475 -463 -487 -2 -7 8 -39 22 -69 l26 -56
52 0 c56 0 408 16 566 26 105 7 106 8 69 84 l-22 45 -80 0 -80 0 -42 85 c-23
47 -47 102 -54 122 -12 38 -12 38 39 92 29 30 52 61 52 68 0 13 -46 118 -52
118 -2 0 -16 -13 -33 -28z m-80 -359 c10 -27 22 -52 26 -57 5 -6 9 -20 9 -32
0 -21 -6 -22 -116 -29 -63 -4 -118 -4 -121 -1 -8 8 157 165 173 166 6 0 19
-21 29 -47z"/>
<path d="M8698 2815 c-14 -28 -18 -48 -12 -54 8 -9 181 -96 302 -151 54 -26
68 -49 30 -51 -13 0 -122 -10 -243 -22 l-220 -22 -27 -50 c-15 -27 -27 -56
-27 -62 -1 -10 489 -260 576 -294 20 -7 25 -3 43 31 35 70 37 68 -165 166
-102 49 -185 92 -185 96 0 10 40 16 284 38 121 11 220 21 221 22 6 7 55 108
55 113 0 3 -80 44 -177 91 -98 47 -227 110 -287 140 -60 30 -118 54 -128 54
-12 0 -26 -16 -40 -45z"/>
<path d="M2114 2392 c-50 -26 -99 -54 -109 -62 -21 -18 -105 -17 -330 4 -82 8
-154 11 -159 6 -4 -4 7 -34 26 -66 40 -69 50 -73 219 -73 58 -1 108 -4 111 -7
6 -5 -73 -148 -111 -203 -34 -48 -34 -66 -1 -130 18 -34 36 -59 41 -56 7 5 80
130 171 296 14 25 32 56 39 68 8 12 69 52 137 87 67 36 122 70 122 75 0 14
-51 109 -59 109 -3 -1 -47 -22 -97 -48z"/>
<path d="M8412 2246 c-28 -36 -47 -86 -36 -95 5 -4 76 -43 158 -86 83 -43 168
-88 190 -100 158 -86 215 -115 228 -115 13 0 51 62 60 98 3 13 -28 31 -262
154 -80 41 -184 96 -232 122 l-86 46 -20 -24z"/>
<path d="M2418 1638 l-25 -73 -81 -3 c-45 -2 -82 -6 -82 -10 0 -4 27 -26 60
-49 35 -25 60 -50 60 -60 0 -10 -9 -46 -19 -80 -11 -35 -16 -63 -13 -63 3 0
32 18 63 40 32 22 62 40 67 40 6 0 38 -19 71 -42 33 -23 63 -40 65 -37 3 3 -6
35 -19 73 -13 37 -22 73 -19 79 3 7 33 32 67 57 l62 45 -85 5 -85 5 -22 64
c-12 35 -26 68 -31 73 -6 6 -19 -17 -34 -64z"/>
<path d="M8270 1710 c0 -3 -11 -36 -24 -75 l-23 -70 -81 -3 c-45 -2 -82 -6
-82 -10 0 -4 27 -25 60 -47 35 -23 60 -47 60 -58 0 -10 -9 -45 -20 -78 -12
-34 -19 -64 -16 -67 3 -3 32 14 65 36 33 23 64 42 71 42 6 0 38 -19 70 -42 33
-23 61 -40 64 -37 2 2 -7 35 -19 74 -13 38 -21 74 -19 80 3 5 31 28 64 50 33
22 60 43 60 47 0 4 -37 8 -82 10 l-83 3 -23 65 c-20 55 -41 96 -42 80z"/>
<path d="M2941 1407 c-5 -12 -12 -38 -16 -57 -3 -19 -22 -98 -40 -175 -19 -77
-37 -159 -41 -182 -7 -46 -2 -52 51 -56 31 -2 34 2 55 90 8 34 20 49 55 73 25
17 49 28 55 25 5 -3 21 -45 35 -93 15 -48 31 -101 36 -119 9 -27 18 -34 62
-47 28 -8 55 -12 60 -7 4 4 -3 36 -16 72 -76 204 -89 249 -77 264 6 8 49 38
95 67 46 29 86 58 89 65 3 8 -15 16 -50 24 l-55 12 -114 -78 c-63 -43 -118
-76 -121 -72 -4 3 2 47 12 96 20 99 18 105 -34 114 -28 6 -34 3 -41 -16z"/>
<path d="M7651 1346 c-56 -18 -116 -83 -137 -148 -39 -127 28 -285 143 -334
58 -24 153 -15 229 24 67 34 118 85 110 111 -3 9 -12 47 -20 84 -7 37 -17 71
-20 74 -6 6 -137 -11 -179 -23 -14 -5 -17 -14 -15 -42 l3 -37 57 3 c55 3 58 2
64 -23 8 -34 -21 -67 -84 -90 -41 -16 -50 -17 -85 -4 -56 20 -95 72 -109 146
-6 33 -8 71 -4 86 23 92 150 136 216 75 20 -19 25 -19 61 -8 24 8 39 19 39 30
0 18 -42 61 -77 79 -27 14 -146 12 -192 -3z"/>
<path d="M3509 1224 c-105 -157 -230 -367 -222 -374 4 -4 25 -11 46 -14 36 -7
38 -6 69 44 17 27 35 50 41 50 38 0 174 -35 184 -47 6 -8 14 -36 18 -63 l7
-48 50 -6 c28 -4 52 -6 53 -4 2 2 -7 53 -20 113 -12 61 -33 170 -46 243 -12
73 -28 140 -34 149 -6 8 -31 17 -56 20 l-44 5 -46 -68z m94 -141 c7 -43 12
-82 9 -87 -6 -10 -102 0 -115 13 -10 10 67 151 83 151 4 0 15 -35 23 -77z"/>
<path d="M7085 1223 c-38 -8 -73 -18 -78 -22 -9 -9 63 -448 77 -466 9 -12 27
-11 116 4 130 23 166 38 207 84 37 42 49 98 40 194 -8 82 -42 149 -96 191 -40
30 -47 32 -119 31 -42 -1 -108 -8 -147 -16z m184 -74 c39 -14 65 -61 80 -146
21 -114 -19 -168 -129 -175 l-55 -3 -22 110 c-12 61 -24 133 -25 160 l-3 50
40 6 c65 10 80 10 114 -2z"/>
<path d="M3885 1209 c-2 -8 -14 -84 -25 -169 -12 -85 -26 -188 -32 -228 -5
-40 -8 -75 -5 -78 2 -2 44 -11 93 -19 171 -28 231 -15 291 63 37 48 51 91 59
177 5 50 2 69 -19 116 -37 84 -79 108 -232 129 -44 6 -90 14 -102 17 -14 3
-25 0 -28 -8z m229 -117 c18 -10 37 -34 45 -55 12 -33 12 -48 -2 -120 -14 -69
-21 -87 -48 -111 -31 -27 -35 -28 -98 -22 -36 4 -70 11 -74 15 -5 5 -2 69 7
142 25 199 17 183 84 175 31 -4 70 -15 86 -24z"/>
<path d="M6660 1156 l-85 -11 1 -51 c1 -29 12 -138 25 -243 l23 -192 45 3 46
3 -1 40 c0 22 -3 62 -5 89 l-4 49 81 16 c132 27 179 74 170 169 -6 62 -24 95
-69 122 -36 23 -90 24 -227 6z m183 -97 c22 -28 22 -60 -3 -86 -23 -26 -127
-50 -143 -34 -5 5 -10 38 -11 73 l-1 63 40 6 c58 10 97 2 118 -22z"/>
<path d="M4453 1113 c-91 -50 -133 -127 -133 -246 0 -79 14 -121 57 -173 45
-54 163 -85 243 -64 115 30 173 114 174 249 0 42 -6 93 -13 113 -15 46 -86
110 -139 126 -59 18 -152 15 -189 -5z m174 -83 c52 -31 68 -65 67 -140 -1 -74
-27 -137 -68 -163 -15 -10 -46 -17 -76 -17 -43 0 -55 5 -87 34 -36 33 -38 37
-41 108 -3 61 1 80 20 118 38 74 119 101 185 60z"/>
<path d="M4875 1068 c-6 -28 -25 -347 -25 -423 l0 -56 43 3 42 3 11 158 c16
219 17 219 59 -6 16 -81 34 -152 41 -158 7 -6 29 -9 50 -7 34 3 39 7 50 43 60
195 88 276 96 281 8 5 0 -295 -8 -305 -10 -11 23 -31 52 -31 31 0 33 2 38 43
10 81 26 439 21 448 -9 14 -131 11 -143 -3 -5 -7 -29 -74 -52 -148 -57 -184
-60 -186 -85 -49 -19 106 -42 209 -46 213 -2 2 -34 6 -71 10 -65 6 -68 6 -73
-16z"/>
<path d="M5985 1073 c-52 -20 -77 -55 -82 -112 -7 -87 29 -120 171 -155 54
-13 102 -28 106 -33 21 -22 20 -52 -3 -78 -19 -23 -31 -27 -77 -28 -51 -1 -55
1 -90 41 -32 38 -39 42 -69 36 -42 -9 -47 -22 -24 -70 35 -74 123 -107 230
-85 100 20 143 68 143 157 0 88 -41 122 -186 154 -94 20 -116 33 -112 64 4 26
42 46 91 46 30 0 45 -7 67 -30 21 -22 37 -30 63 -30 20 0 39 5 42 11 18 28
-27 95 -78 117 -38 16 -144 14 -192 -5z"/>
<path d="M5561 1038 c-5 -13 -43 -110 -85 -217 -43 -107 -80 -207 -83 -223
l-6 -29 48 3 c47 3 47 3 67 56 l20 53 100 -3 c78 -2 103 -6 108 -18 4 -8 15
-32 24 -52 15 -36 18 -38 61 -38 29 0 45 4 45 13 0 16 -21 75 -60 167 -17 41
-46 113 -64 160 -60 159 -54 150 -114 150 -45 0 -54 -3 -61 -22z m84 -150 c51
-125 50 -128 -19 -128 -30 0 -58 5 -61 11 -8 12 43 159 54 159 5 0 16 -19 26
-42z"/>
<path d="M6438 853 c-74 -4 -84 -14 -69 -68 9 -33 7 -33 124 -20 l58 7 -3 41
c-3 47 1 46 -110 40z"/>
</g>
</svg>
